<?xml version="1.0" encoding="UTF-8" standalone="no"?>
<svg
   version="1.1"
   x="0px"
   y="0px"
   viewBox="0 0 95.384064 91.02092"
   enable-background="new 0 0 100 100"
   xml:space="preserve"
   id="svg30"
   sodipodi:docname="clock.svg"
   width="95.384064"
   height="91.02092"
   inkscape:version="1.1.1 (3bf5ae0d25, 2021-09-20)"
   inkscape:export-filename="D:\OneDrive\Workspace\Autonomus\2018-Citiveto\email\images\clock.png"
   inkscape:export-xdpi="299.73264"
   inkscape:export-ydpi="299.73264"
   xmlns:inkscape="http://www.inkscape.org/namespaces/inkscape"
   xmlns:sodipodi="http://sodipodi.sourceforge.net/DTD/sodipodi-0.dtd"
   xmlns="http://www.w3.org/2000/svg"
   xmlns:svg="http://www.w3.org/2000/svg"><defs
     id="defs34" /><sodipodi:namedview
     id="namedview32"
     pagecolor="#505050"
     bordercolor="#eeeeee"
     borderopacity="1"
     inkscape:pageshadow="0"
     inkscape:pageopacity="0"
     inkscape:pagecheckerboard="0"
     showgrid="false"
     fit-margin-top="0"
     fit-margin-left="0"
     fit-margin-right="0"
     fit-margin-bottom="0"
     inkscape:zoom="8"
     inkscape:cx="42.1875"
     inkscape:cy="47.8125"
     inkscape:window-width="2560"
     inkscape:window-height="1377"
     inkscape:window-x="-8"
     inkscape:window-y="-8"
     inkscape:window-maximized="1"
     inkscape:current-layer="svg30"
     inkscape:snap-page="true" /><g
     id="g24"
     transform="translate(-2.3079794,-4.4890054)"><g
       id="g22"><path
         fill="none"
         d="M 48.03,16.181 C 29.04,17.18 14.09,33.487 15.394,52.62 c 1.291,18.94 15.807,28.818 32.731,31.518 0.178,-0.249 0.46,-0.417 0.876,-0.381 20.021,1.745 36.266,-15.46 34.96,-35.343 C 82.753,30.011 66.444,15.212 48.03,16.181 Z M 23.091,51.648 c -1.233,0.23 -2.5,0.131 -3.747,0.088 -1.167,-0.04 -2.214,0.096 -2.968,-0.915 -0.188,-0.253 -0.188,-0.746 0,-0.999 0.748,-1.003 1.81,-0.876 2.968,-0.916 1.246,-0.043 2.517,-0.141 3.747,0.089 1.314,0.245 1.314,2.409 0,2.653 z m 24.533,-31.81 c 0.082,-0.362 0.361,-0.576 0.678,-0.654 0.488,-0.853 1.867,-0.433 1.853,0.492 0,0 10e-4,0 10e-4,-10e-4 0,10e-4 0,0.002 0,0.004 0,0.006 -0.002,0.011 -0.002,0.017 -0.198,1.831 -0.394,3.662 -0.592,5.494 -0.139,1.295 -2.069,1.36 -2.068,0 0,-1.723 -0.253,-3.67 0.13,-5.352 z m 4.585,56.652 c -0.05,1.102 -0.086,2.201 -0.24,3.294 -0.17,1.203 -2.26,1.203 -2.43,0 -0.154,-1.093 -0.19,-2.192 -0.239,-3.294 -0.051,-1.133 -0.2,-2.17 0.286,-3.219 0.411,-0.885 1.925,-0.885 2.335,0 0.488,1.048 0.339,2.086 0.288,3.219 z m 9.638,-47.994 c -3.074,7.133 -5.589,14.73 -9.162,21.638 0.228,0.175 0.445,0.363 0.627,0.582 1.524,1.841 0.558,4.355 -1.462,5.316 -2.02,0.961 -4.694,0.225 -5.277,-2.127 -0.036,-0.144 -0.042,-0.293 -0.059,-0.441 -0.054,0.014 -0.097,0.039 -0.156,0.046 -1.577,0.192 -3.152,0.292 -4.735,0.407 -1.497,0.109 -2.969,0.421 -4.432,-0.04 -1.337,-0.421 -1.335,-2.292 0,-2.713 1.46,-0.46 2.938,-0.152 4.432,-0.04 1.584,0.118 3.157,0.214 4.735,0.407 0.133,0.016 0.244,0.057 0.349,0.103 0.453,-1.304 1.527,-2.366 2.98,-2.414 0.036,-10e-4 0.062,0.017 0.089,0.03 0.304,-0.025 0.614,-0.006 0.921,0.039 1.684,-7.646 5.327,-15.216 8.668,-22.244 0.805,-1.694 3.198,-0.212 2.482,1.451 z m 18.038,23.836 c -1.974,0.262 -4.044,0.249 -6.037,0.342 -1.278,0.06 -1.577,-2.041 -0.304,-2.246 2.09,-0.337 4.234,-0.796 6.341,-0.956 1.875,-0.141 1.769,2.626 0,2.86 z"
         id="path2" /><path
         fill="none"
         d="m 48.787,51.562 c -0.21,0.228 -0.448,0.29 -0.671,0.259 -0.114,0.462 -0.136,0.945 -0.017,1.414 0.337,1.334 1.633,1.763 2.847,1.266 1.095,-0.448 1.846,-1.687 0.978,-2.71 -0.778,-0.917 -2.295,-1.141 -3.137,-0.229 z"
         id="path4" /><path
         fill="none"
         d="M 92.437,49.651 C 91.905,37.179 87.304,24.441 76.518,17.35 67.265,11.266 55.829,8.804 44.886,10.065 23.665,12.511 5.874,31.272 7.272,53.179 8.77,76.68 28.424,89.446 49.812,90.639 49.69,89.927 50.248,89.075 51.174,89.296 75.725,95.158 93.409,72.431 92.437,49.651 Z M 49.001,86.029 C 48.793,86.011 48.624,85.941 48.476,85.848 30.87,86.916 14.901,70.781 13.255,53.792 11.275,33.354 26.461,15.506 46.856,13.921 c 20.08,-1.56 38.019,14.43 39.336,34.492 1.362,20.776 -16.14,39.45 -37.191,37.616 z"
         id="path6" /><path
         d="M 46.855,13.922 C 26.46,15.507 11.274,33.354 13.254,53.793 14.9,70.782 30.869,86.917 48.475,85.849 48.624,85.942 48.792,86.012 49,86.03 70.051,87.865 87.553,69.191 86.19,48.415 84.875,28.351 66.935,12.361 46.855,13.922 Z m 2.146,69.835 C 48.586,83.721 48.303,83.889 48.125,84.138 31.201,81.437 16.685,71.56 15.394,52.62 14.09,33.487 29.04,17.18 48.03,16.181 66.443,15.212 82.753,30.011 83.961,48.414 85.267,68.297 69.022,85.501 49.001,83.757 Z"
         id="path8" /><path
         d="M 80.02,16.805 C 64.199,5.04 40.658,3.878 24.287,15.147 9.698,25.19 1.718,43.603 6.285,60.986 c 5.078,19.328 24.43,33.546 44.352,31.157 1.239,0.073 2.48,0.108 3.72,0.109 38.55,6.148 54.97,-53.655 25.663,-75.447 z M 51.174,89.296 C 50.247,89.075 49.69,89.927 49.812,90.639 28.424,89.446 8.77,76.68 7.272,53.179 5.874,31.272 23.665,12.511 44.886,10.065 55.829,8.804 67.265,11.266 76.518,17.35 87.304,24.442 91.905,37.18 92.437,49.651 93.409,72.431 75.725,95.158 51.174,89.296 Z"
         id="path10" /><path
         d="m 59.364,27.045 c -3.342,7.028 -6.985,14.598 -8.668,22.244 -0.307,-0.045 -0.616,-0.064 -0.921,-0.039 -0.028,-0.014 -0.054,-0.032 -0.089,-0.03 -1.453,0.048 -2.527,1.11 -2.98,2.414 -0.105,-0.046 -0.216,-0.087 -0.349,-0.103 -1.577,-0.193 -3.151,-0.289 -4.735,-0.407 -1.494,-0.112 -2.972,-0.42 -4.432,0.04 -1.335,0.421 -1.337,2.292 0,2.713 1.463,0.461 2.936,0.149 4.432,0.04 1.583,-0.115 3.158,-0.215 4.735,-0.407 0.06,-0.007 0.102,-0.032 0.156,-0.046 0.018,0.147 0.023,0.297 0.059,0.441 0.582,2.353 3.257,3.088 5.277,2.127 2.02,-0.961 2.985,-3.475 1.462,-5.316 -0.182,-0.219 -0.399,-0.407 -0.627,-0.582 3.573,-6.908 6.089,-14.505 9.162,-21.638 0.717,-1.663 -1.676,-3.145 -2.482,-1.451 z m -8.418,27.456 c -1.214,0.497 -2.511,0.068 -2.847,-1.266 -0.118,-0.469 -0.097,-0.952 0.017,-1.414 0.223,0.031 0.46,-0.031 0.671,-0.259 0.842,-0.912 2.36,-0.688 3.137,0.229 0.868,1.023 0.117,2.262 -0.978,2.71 z"
         id="path12" /><path
         d="m 49.562,25.19 c 0.198,-1.831 0.395,-3.662 0.592,-5.494 0,-0.006 0.002,-0.011 0.002,-0.017 0,-10e-4 0,-0.002 0,-0.004 0,10e-4 -10e-4,10e-4 -10e-4,10e-4 0.014,-0.924 -1.365,-1.345 -1.853,-0.492 -0.317,0.077 -0.596,0.292 -0.678,0.654 -0.383,1.682 -0.13,3.629 -0.13,5.351 -10e-4,1.361 1.929,1.296 2.068,0.001 z"
         id="path14" /><path
         d="m 23.091,48.995 c -1.231,-0.229 -2.501,-0.131 -3.747,-0.089 -1.158,0.04 -2.22,-0.087 -2.968,0.916 -0.188,0.253 -0.188,0.746 0,0.999 0.754,1.011 1.801,0.875 2.968,0.915 1.247,0.043 2.515,0.142 3.747,-0.088 1.314,-0.244 1.314,-2.408 0,-2.653 z"
         id="path16" /><path
         d="m 49.586,73.271 c -0.487,1.049 -0.338,2.086 -0.286,3.219 0.049,1.102 0.086,2.201 0.239,3.294 0.17,1.203 2.26,1.203 2.43,0 0.154,-1.093 0.19,-2.192 0.24,-3.294 0.051,-1.133 0.201,-2.17 -0.287,-3.219 -0.411,-0.885 -1.925,-0.885 -2.336,0 z"
         id="path18" /><path
         d="m 79.885,49.473 c -2.108,0.16 -4.251,0.618 -6.341,0.956 -1.273,0.205 -0.974,2.307 0.304,2.246 1.993,-0.094 4.063,-0.081 6.037,-0.342 1.769,-0.235 1.875,-3.002 0,-2.86 z"
         id="path20" /></g></g><path
     style="fill:#ffffff;stroke-width:1.13386"
     d="M 44.19193,79.32293 C 37.765438,78.097295 31.907026,75.813436 27.25443,72.719971 22.362765,69.46755 18.446215,65.019695 16.129747,60.086155 13.152609,53.745537 12.276947,45.880464 13.769237,38.884369 16.522374,25.97722 26.62823,15.692114 39.56693,12.629092 c 9.899757,-2.343602 19.811548,-0.238567 28.157852,5.980078 3.053968,2.275443 6.609489,6.134569 8.713703,9.45776 2.631671,4.156209 4.570876,9.756986 5.076605,14.662159 0.190536,1.848054 0.0794,6.782292 -0.190623,8.462841 -0.956427,5.952684 -3.348001,11.420482 -7.025615,16.0625 -1.081522,1.365136 -3.933214,4.204757 -5.272531,5.250213 -3.850251,3.005461 -8.697925,5.280298 -13.167734,6.179141 -2.566376,0.516077 -3.662495,0.617596 -6.754063,0.625537 -2.19464,0.0056 -3.002927,0.0481 -3.11875,0.163859 -0.08599,0.08594 -0.187281,0.151654 -0.225094,0.146038 -0.03781,-0.0056 -0.74375,-0.138948 -1.56875,-0.296288 z m 4.878656,-3.266113 c 0.260873,-0.123792 0.466429,-0.341017 0.550261,-0.581497 0.0736,-0.211136 0.197848,-1.477225 0.2761,-2.81353 0.164875,-2.815541 0.06802,-3.591056 -0.522223,-4.181296 -0.501548,-0.501549 -1.364327,-0.501263 -1.866207,6.25e-4 -0.580917,0.580918 -0.680102,1.402012 -0.511933,4.238003 0.150539,2.53867 0.207233,2.845217 0.587251,3.175254 0.461586,0.40088 0.886464,0.447304 1.486751,0.162449 z m 0.358036,-24.467716 c 2.360259,-1.080562 3.070178,-3.844335 1.424962,-5.547492 l -0.386703,-0.400321 1.131231,-2.412179 c 1.404664,-2.995235 2.169025,-4.813176 5.008532,-11.912179 1.237457,-3.09375 2.429156,-6.046875 2.648217,-6.5625 0.617673,-1.453876 0.508208,-2.185092 -0.413472,-2.761944 -0.467419,-0.292543 -1.133839,-0.246817 -1.482112,0.101694 -0.414705,0.414989 -4.095683,8.395346 -5.690921,12.337911 -0.997206,2.464554 -2.377271,6.588163 -2.921232,8.728589 l -0.405032,1.59375 h -0.797846 c -0.438815,0 -0.986702,0.07891 -1.217526,0.175354 -0.614637,0.256811 -1.393961,1.010551 -1.701318,1.645466 -0.147749,0.30521 -0.316306,0.525466 -0.374568,0.489457 -0.05826,-0.03601 -1.754727,-0.20891 -3.769919,-0.384223 -3.710818,-0.322829 -4.883956,-0.322527 -5.659355,0.0014 -0.883699,0.369232 -1.197244,1.340058 -0.697499,2.159663 0.307439,0.504216 1.184284,0.787915 2.434306,0.787612 0.68411,-1.25e-4 5.010154,-0.315737 7.313279,-0.533477 0.246964,-0.02335 0.319995,0.04226 0.385338,0.346192 0.217912,1.013571 1.195148,2.024536 2.277836,2.356451 0.867279,0.265879 2.041391,0.180966 2.893802,-0.20928 z m 26.684463,-3.594799 c 0.954143,-0.07072 1.81769,-0.199643 2.012687,-0.300481 0.703069,-0.363571 1.048857,-1.372677 0.700927,-2.0455 -0.307199,-0.594056 -0.595572,-0.687206 -1.877,-0.606304 -1.235705,0.07802 -5.433675,0.763857 -5.960304,0.97376 -0.802209,0.319745 -0.784082,1.617729 0.02879,2.061858 0.323305,0.176643 1.94541,0.150111 5.094896,-0.08333 z M 21.06092,47.061404 c 0.47539,-0.225588 0.69351,-0.629754 0.69351,-1.285043 0,-0.57873 -0.281146,-0.995472 -0.824822,-1.222635 -0.612002,-0.255711 -4.893796,-0.244382 -5.768109,0.01526 -0.705436,0.209493 -1.282069,0.767509 -1.282069,1.240678 0,0.367111 0.412872,0.890741 0.917287,1.16336 0.769993,0.416153 5.434777,0.481968 6.264203,0.08838 z M 46.552255,21.635009 c 0.586934,-0.223151 0.686752,-0.569216 1.01395,-3.515258 0.171209,-1.541552 0.311725,-2.903815 0.312258,-3.027253 0.0016,-0.371642 -0.564899,-0.838068 -1.017882,-0.838068 -0.44487,0 -1.279638,0.509968 -1.519747,0.928428 -0.209494,0.365105 -0.285373,5.46622 -0.08838,5.941795 0.220518,0.532377 0.72298,0.729664 1.299804,0.510356 z"
     id="path921" /><path
     style="fill:#ffffff;stroke-width:1.13386"
     d="m 46.616665,49.845688 c -0.54226,-0.362253 -0.861794,-1.000173 -0.862041,-1.720986 -1.88e-4,-0.550525 0.02097,-0.581641 0.718556,-1.056699 0.621406,-0.423179 0.813524,-0.489974 1.418527,-0.493188 0.551341,-0.0029 0.805716,0.06639 1.199214,0.326794 0.607497,0.402022 0.964913,1.08422 0.847683,1.617965 -0.107615,0.489968 -0.757237,1.225912 -1.271956,1.440975 -0.638359,0.266723 -1.555728,0.215323 -2.049983,-0.114861 z"
     id="path960" /><path
     style="fill:#ffffff;stroke-width:1.13386"
     d="m 46.56693,86.050154 c -0.20625,-0.023 -1.05,-0.10405 -1.875,-0.180112 -3.417886,-0.315115 -8.10999,-1.305605 -11.5,-2.427617 C 22.259866,79.824169 13.874553,73.072085 9.2073621,64.129391 4.7028459,55.498395 3.6936977,44.819942 6.5022109,35.50443 9.0573211,27.029425 14.290764,19.603352 21.56693,14.128119 31.914061,6.3420191 44.432652,3.6332477 57.87943,6.2708247 c 7.253179,1.4227064 14.554431,4.8022813 19.4375,8.9971513 6.96174,5.980583 11.181389,14.857584 12.518971,26.336535 0.2691,2.309382 0.306546,7.830445 0.06672,9.837419 -1.497432,12.531294 -7.59926,23.14848 -16.829552,29.283434 -1.575126,1.046915 -4.560835,2.558299 -6.33561,3.207125 -3.690005,1.348999 -8.136097,1.974245 -12.07847,1.698571 -1.737943,-0.121526 -2.468175,-0.223167 -5.496491,-0.765054 l -0.904429,-0.161839 -0.376821,0.361018 c -0.244225,0.233982 -0.376821,0.484744 -0.376821,0.712631 0,0.372033 -0.01206,0.375538 -0.9375,0.272338 z m 5.78125,-4.491494 c 1.452112,-0.09396 3.625405,-0.471444 5.46875,-0.949885 10.984386,-2.851004 20.23513,-11.56645 24.169665,-22.771081 4.634899,-13.1991 0.996917,-27.95365 -9.376933,-38.030009 C 63.741904,11.194228 51.655799,7.6090997 39.831694,10.084684 25.785972,13.025403 14.65436,23.96913 11.62333,37.81693 c -0.662421,3.026385 -0.796394,4.34307 -0.801289,7.875 -0.0059,4.285815 0.350116,6.727749 1.504396,10.317606 3.404615,10.58849 11.743813,19.583064 21.717432,23.424204 3.431591,1.321607 6.34954,1.882385 10.460561,2.01033 1.065625,0.03316 2.55625,0.107121 3.3125,0.164349 1.350183,0.10217 2.353461,0.09115 4.53125,-0.04976 z"
     id="path999"
     inkscape:export-filename="D:\OneDrive\Workspace\Autonomus\2018-Citiveto\email\clock.png"
     inkscape:export-xdpi="300"
     inkscape:export-ydpi="300" /></svg>
